<?xml version="1.0" encoding="UTF-8"?>
<svg width="100" height="100" viewBox="0 0 100 100" xmlns="http://www.w3.org/2000/svg">
  <style>
    .book { fill: #4CAF50; }
    .border { fill: #DAA520; }
    .text { fill: #DAA520; }
    .shine { fill: #FFF; opacity: 0.2; }
  </style>
  
  <!-- Book base -->
  <rect class="book" x="10" y="20" width="80" height="60" rx="5"/>
  
  <!-- Decorative border -->
  <path class="border" d="M15 25h70v50h-70z"/>
  
  <!-- Arabic text stylized -->
  <path class="text" d="M35 45c0 0 10-5 15 0s10 5 15 0"/>
  
  <!-- Floral pattern -->
  <path class="border" d="M25 35c5-5 10 0 10 0m30 0c-5-5-10 0-10 0"/>
  <path class="border" d="M25 55c5 5 10 0 10 0m30 0c-5 5-10 0-10 0"/>
  
  <!-- Shine effect -->
  <path class="shine" d="M15 25l70 0-10 50h-50z"/>
</svg>
